<?xml version="1.0" encoding="UTF-8" standalone="no"?>
<svg
   xmlns:dc="http://purl.org/dc/elements/1.1/"
   xmlns:cc="http://creativecommons.org/ns#"
   xmlns:rdf="http://www.w3.org/1999/02/22-rdf-syntax-ns#"
   xmlns:svg="http://www.w3.org/2000/svg"
   xmlns="http://www.w3.org/2000/svg"
   xmlns:sodipodi="http://sodipodi.sourceforge.net/DTD/sodipodi-0.dtd"
   xmlns:inkscape="http://www.inkscape.org/namespaces/inkscape"
   id="svg52"
   version="1.1"
   viewBox="0 0 666.02002 116.14"
   sodipodi:docname="img-footer.svg"
   width="666.02002"
   height="116.14"
   inkscape:version="0.92.3 (2405546, 2018-03-11)">
  <sodipodi:namedview
     pagecolor="#ffffff"
     bordercolor="#666666"
     borderopacity="1"
     objecttolerance="10"
     gridtolerance="10"
     guidetolerance="10"
     inkscape:pageopacity="0"
     inkscape:pageshadow="2"
     inkscape:window-width="1920"
     inkscape:window-height="986"
     id="namedview36"
     showgrid="false"
     fit-margin-top="0"
     fit-margin-left="0"
     fit-margin-right="0"
     fit-margin-bottom="0"
     inkscape:zoom="0.50835149"
     inkscape:cx="-254.73843"
     inkscape:cy="71.165999"
     inkscape:window-x="-11"
     inkscape:window-y="-11"
     inkscape:window-maximized="1"
     inkscape:current-layer="svg52"
     inkscape:measure-start="0,0"
     inkscape:measure-end="0,0" />
  <metadata
     id="metadata56">
    <rdf:RDF>
      <cc:Work
         rdf:about="">
        <dc:format>image/svg+xml</dc:format>
        <dc:type
           rdf:resource="http://purl.org/dc/dcmitype/StillImage" />
        <dc:title>wids-white-1line</dc:title>
      </cc:Work>
    </rdf:RDF>
  </metadata>
  <defs
     id="defs4">
    <style
       id="style2">.cls-1{fill:#6d6e71;stroke:#231f20;stroke-miterlimit:10;}.cls-2,.cls-3{fill:#fff;}.cls-3{font-size:32px;font-family:FuturaStd-Book, Futura Std;letter-spacing:-0.01em;}</style>
  </defs>
  <title
     id="title6">wids-white-1line</title>
  <g
     transform="translate(-51.86,-55.25)"
     id="Logos">
    <path
       inkscape:connector-curvature="0"
       style="fill:#ffffff"
       id="path10"
       d="m 204.52,108.86 2.76,-2.69 4.05,-4 a 1.72,1.72 0 0 1 1.34,-0.58 3.84,3.84 0 0 1 0.7,0.07 42.12,42.12 0 0 0 7,0.68 H 221 c 3,-0.08 5.94,-1.38 8.83,-4 2.16,1.92 2.44,4.29 2.61,7.85 l 0.11,2.24 1,-2 c 1.41,-2.64 0.31,-8.68 -0.82,-10.52 a 1.71,1.71 0 0 1 -0.09,-1.81 8.35,8.35 0 0 0 -0.95,-8.17 l -1.43,-2.22 0.3,2.62 a 10.85,10.85 0 0 1 -0.45,5.69 l -0.64,-0.54 a 21.91,21.91 0 0 0 -2.91,-2.22 19.34,19.34 0 0 0 -5,-2.18 17.14,17.14 0 0 0 -4.2,-0.53 c -0.37,0 -0.73,0 -1.09,0 -0.36,0 -0.55,0 -0.82,0.09 a 34.56,34.56 0 0 0 3,-2.1 c 6.6,-5.31 9.21,-12.07 7.76,-20.1 a 10,10 0 0 0 -5.14,-7.19 l -3.61,-2 2.86,3 c 2.17,2.27 2.46,4.87 0.9,8 a 21.82,21.82 0 0 1 -10.48,10.15 41.09,41.09 0 0 1 -17.47,3.76 51.85,51.85 0 0 1 -5.63,-0.32 8.89,8.89 0 0 1 -4.45,-1.9 84.59,84.59 0 0 0 -43.1,-16.07 h -0.19 -0.6 c -1.32,-0.1 -2.66,-0.17 -4,-0.21 -2.37,-0.38 -4.72,-0.65 -7,-0.83 C 99,58.57 74.32,71.34 70,76.77 c -5.17,6.54 -0.34,6.68 -3.79,14.4 -6,13.58 -1.86,10.16 -2.68,16.64 -0.26,2.07 -11.67,8.39 -11.67,11.15 0,1.72 1.71,2.78 2.38,3.47 a 6.09,6.09 0 0 1 1.36,1.68 1.18,1.18 0 0 1 0,0.72 2.14,2.14 0 0 1 -0.41,0.6 c -0.52,0.67 -1,1.34 -1.56,2 a 1.2,1.2 0 0 0 -0.07,1.24 4.49,4.49 0 0 0 1.68,2 c 0.27,0.19 0.23,0.32 0,0.5 a 8.07,8.07 0 0 0 -0.67,0.64 c -0.91,1 -1.2,2.23 0.31,3.22 a 5.13,5.13 0 0 1 1,3.27 c -0.07,0.4 -1.14,2.77 -1.37,3.62 a 4.07,4.07 0 0 0 0.15,2.06 2.13,2.13 0 0 0 0.47,0.89 c 1.26,1.44 4.47,2.41 10.24,1.61 a 1.73,1.73 0 0 0 0.19,0.28 v 0 a 1.13,1.13 0 0 0 0.1,0.13 c 0.84,1 2.72,2.12 6.87,2.12 a 29.91,29.91 0 0 0 4.31,-0.35 h 0.09 l 0.49,-0.06 a 270.35,270.35 0 0 1 21.25,22.79 h 9.65 l -0.06,-0.07 v 0 l -0.2,-0.25 a 1.43,1.43 0 0 1 -0.15,-0.18 v 0 c -0.31,-0.37 -0.75,-0.91 -1.34,-1.59 l -0.6,-0.7 -0.48,-0.56 -0.21,-0.24 -0.38,-0.43 -0.15,-0.18 -0.5,-0.56 -0.14,-0.16 -0.4,-0.45 -0.15,-0.18 -0.57,-0.62 -0.59,-0.66 -0.17,-0.18 c -0.15,-0.18 -0.31,-0.35 -0.48,-0.53 l -0.1,-0.12 -0.07,-0.07 -0.66,-0.72 c -0.74,-0.8 -1.53,-1.65 -2.38,-2.54 -0.34,-0.36 -0.69,-0.74 -1.05,-1.11 l -0.17,-0.17 -0.15,-0.16 v 0 l -0.85,-0.87 -0.31,-0.32 -1.16,-1.18 -0.05,-0.06 -0.17,-0.17 -0.4,-0.4 -0.6,-0.61 v 0 l -0.37,-0.37 v 0 l -1,-1 v 0 l -0.24,-0.25 v 0 l -1.3,-1.27 -0.37,-0.36 -1,-1 v 0 l -0.25,-0.24 -0.16,-0.15 -1.39,-1.32 v 0 0 l -0.23,-0.2 a 0.18,0.18 0 0 1 -0.07,0 l -0.17,-0.11 v 0 h -0.06 v 0 l -0.19,-0.11 v 0 0 0 l -0.25,-0.12 v 0 l -0.31,-0.13 v 0 h -0.11 v 0 l -0.23,-0.08 v 0 h -0.11 l -0.23,-0.07 H 85.5 v 0 l -0.29,-0.07 v 0 h -0.06 v 0 l -0.38,-0.07 v 0 h -0.12 v 0 h -0.27 v 0 h -0.14 v 0 h -0.26 v 0 h -0.15 v 0 h -0.3 -0.11 -0.41 -0.41 -0.31 -2.15 -0.5 -0.12 -0.46 v 0 h -0.48 v 0 h -0.11 v 0 L 78,148 v 0 l -0.45,0.06 h -0.11 l -0.43,0.06 h -0.09 l -1.05,0.14 H 75.8 l -0.94,0.09 H 74.7 l -0.86,0.06 h -0.13 -0.79 -1 -0.64 -0.2 l -0.51,-0.05 H 70.4 c -0.21,0 -0.41,-0.06 -0.6,-0.09 h -0.12 l -0.45,-0.1 h -0.17 l -0.4,-0.11 h -0.11 c -0.16,-0.05 -0.32,-0.1 -0.46,-0.16 h -0.11 l -0.32,-0.14 -0.12,-0.06 -0.32,-0.17 v 0 l -0.33,-0.22 -0.08,-0.06 -0.21,-0.18 -0.08,-0.07 a 1.75,1.75 0 0 1 -0.23,-0.24 l -0.1,-0.12 a 2.61,2.61 0 0 1 -0.2,-0.3 0.54,0.54 0 0 1 0,-0.11 v -0.06 l -0.05,-0.12 a 1.09,1.09 0 0 1 0,-0.17 c 0,-0.11 0,-0.22 -0.08,-0.33 a 0.43,0.43 0 0 1 0,-0.11 l -0.06,-0.25 a 0.69,0.69 0 0 0 0,-0.13 v -0.23 c 0,0 0,-0.09 0,-0.13 0,-0.04 0,-0.22 0,-0.32 a 0.15,0.15 0 0 1 0,-0.07 1.09,1.09 0 0 1 0,-0.18 0.15,0.15 0 0 0 0,-0.07 c 0,-0.08 0,-0.16 0.05,-0.25 v 0 a 1,1 0 0 1 0,-0.14 v 0 0 c 0,0 0,-0.09 0,-0.14 v 0 l 0.12,-0.34 0.1,-0.25 0.12,-0.31 0.21,-0.51 c 0.06,-0.14 0.12,-0.29 0.17,-0.43 v 0 0 l 0.09,-0.21 v -0.06 l 0.06,-0.15 v 0 -0.08 0 l 0.05,-0.14 v -0.05 0 0 -0.12 0 -0.06 a 0.49,0.49 0 0 1 0,-0.11 v -0.05 0 -0.06 0 0 a 0.51,0.51 0 0 0 0,-0.09 0.41,0.41 0 0 0 0,-0.11 c 0,0 0,0 0,0 v 0 -0.22 c 0,-0.06 0,-0.12 0,-0.19 v 0 c 0,-0.09 0,-0.19 0,-0.29 v -0.06 l -0.06,-0.31 a 0.64,0.64 0 0 0 0,-0.07 q -0.06,-0.28 -0.15,-0.57 v -0.06 a 2.25,2.25 0 0 0 -0.08,-0.24 v -0.07 c 0,-0.1 -0.07,-0.19 -0.1,-0.27 v 0 a 0.61,0.61 0 0 1 -0.07,-0.14 c 0,-0.09 -0.09,-0.18 -0.13,-0.25 l -0.1,-0.14 v 0 l -0.07,-0.09 v 0 l -0.1,-0.08 -0.26,-0.18 a 1.9,1.9 0 0 1 -0.21,-0.19 l -0.06,-0.06 -0.12,-0.13 -0.06,-0.07 -0.05,-0.08 v 0 0 l -0.05,-0.07 v 0 l -0.06,-0.12 a 0.3,0.3 0 0 1 0,-0.08 0.56,0.56 0 0 1 0,-0.12 v -0.08 -0.13 0 -0.06 a 1.41,1.41 0 0 1 0,-0.2 1,1 0 0 1 0,-0.25 v 0 -0.19 a 3.12,3.12 0 0 1 0.15,-0.39 3.26,3.26 0 0 1 0.24,-0.4 3.68,3.68 0 0 1 0.31,-0.38 c 0.21,-0.22 0.44,-0.43 0.67,-0.63 l 0.13,-0.13 a 0.28,0.28 0 0 0 0,-0.12 0.13,0.13 0 0 0 0,-0.06 0.35,0.35 0 0 0 0,-0.08 v 0 0 l -0.08,-0.06 c -0.18,-0.14 -0.36,-0.27 -0.52,-0.42 v 0 a 2.91,2.91 0 0 1 -0.31,-0.3 0.27,0.27 0 0 1 -0.07,-0.08 3.11,3.11 0 0 1 -0.29,-0.33 v 0 c -0.09,-0.12 -0.16,-0.24 -0.24,-0.37 a 0.41,0.41 0 0 1 0,-0.09 c -0.07,-0.13 -0.14,-0.27 -0.2,-0.41 l -0.06,-0.2 v -0.06 a 1.55,1.55 0 0 1 0,-0.21 0.41,0.41 0 0 1 0,-0.11 v 0 a 0.61,0.61 0 0 1 0,-0.14 0.51,0.51 0 0 1 0,-0.13 v 0 a 1,1 0 0 1 0.11,-0.23 v 0 0 0 l 0.32,-0.42 c 0.07,-0.09 0.13,-0.18 0.2,-0.26 l 1,-1.34 0.24,-0.29 a 1.05,1.05 0 0 0 0.17,-0.31 1.08,1.08 0 0 0 0,-0.36 v 0 A 0.77,0.77 0 0 0 66.74,126.69 6.29,6.29 0 0 0 65.38,125 l -0.15,-0.14 -0.06,-0.06 a 0.52,0.52 0 0 1 -0.11,-0.1 l -0.1,-0.09 -0.14,-0.11 -0.14,-0.12 -0.09,-0.08 -0.12,-0.12 -0.09,-0.08 -0.13,-0.12 -0.09,-0.09 -0.14,-0.14 -0.07,-0.08 c -0.07,-0.07 -0.13,-0.15 -0.2,-0.23 a 1.77,1.77 0 0 1 -0.16,-0.22 l -0.05,-0.07 -0.11,-0.16 a 0.41,0.41 0 0 0 0,-0.09 l -0.05,-0.08 v -0.07 a 0.93,0.93 0 0 1 -0.05,-0.1 l -0.06,-0.15 v 0 a 0.49,0.49 0 0 1 0,-0.11 L 63,121.3 a 0.43,0.43 0 0 1 0,-0.11 1.29,1.29 0 0 1 0,-0.19 c 0,0 0,-0.06 0,-0.09 a 2.11,2.11 0 0 1 0,-0.25 v 0 0 a 1.22,1.22 0 0 1 0,-0.26 c 0,0 0,0 0,-0.08 0,-0.08 0,-0.09 0,-0.13 0,-0.04 0,0 0,-0.06 a 0.37,0.37 0 0 0 0.05,-0.11 l 0.09,-0.18 0.08,-0.12 a 1.74,1.74 0 0 1 0.11,-0.18 l 0.09,-0.13 0.15,-0.19 0.1,-0.13 0.2,-0.22 0.09,-0.11 0.29,-0.3 a 1.59,1.59 0 0 1 0.13,-0.13 l 0.22,-0.22 0.12,-0.11 0.37,-0.34 c 0.16,-0.14 0.31,-0.28 0.48,-0.41 l 0.41,-0.35 v 0 l 0.23,-0.2 0.11,-0.08 0.1,-0.08 0.17,-0.14 0.16,-0.13 v 0 0 0 l 0.48,-0.38 0.86,-0.66 v 0 l 0.94,-0.71 0.94,-0.71 v 0 l 0.25,-0.19 v 0 l 0.89,-0.67 v 0 l 0.28,-0.22 0.49,-0.39 0.08,-0.06 0.31,-0.25 0.09,-0.08 0.28,-0.23 0.08,-0.08 a 3.23,3.23 0 0 0 0.27,-0.23 h 0.06 a 7.1,7.1 0 0 0 1.3,-1.41 v 0 l 0.08,-0.13 0.08,-0.16 v 0 a 0.53,0.53 0 0 0 0,-0.2 v 0 c 0,-0.08 0,-0.15 0,-0.23 a 0.34,0.34 0 0 0 0,-0.1 V 109 a 2,2 0 0 0 0,-0.23 v 0 -0.1 c 0,-0.07 0,-0.15 0,-0.22 v -0.07 a 2.72,2.72 0 0 0 0,-0.28 V 108 a 3.08,3.08 0 0 0 0,-0.43 v 0 c 0,-0.14 0,-0.28 0,-0.42 v 0 c 0,-0.14 0,-0.26 0,-0.38 v 0 a 6.46,6.46 0 0 0 -0.13,-0.71 v 0 c 0,-0.1 0,-0.2 -0.08,-0.3 v 0 a 2.29,2.29 0 0 0 -0.08,-0.28 v 0 -0.1 c 0,-0.15 -0.09,-0.3 -0.13,-0.45 L 74,104.57 v -0.13 c 0,-0.08 0,-0.17 0,-0.26 v -0.16 a 2.46,2.46 0 0 1 0,-0.28 1.36,1.36 0 0 1 0,-0.21 c 0,-0.08 0,-0.17 0,-0.26 a 1.09,1.09 0 0 0 0,-0.18 v 0 c 0,-0.11 0,-0.23 0,-0.35 a 0.41,0.41 0 0 1 0,-0.11 v -0.08 a 0.37,0.37 0 0 1 0,-0.11 c 0,-0.13 0,-0.27 0,-0.41 v 0 c 0,-0.09 0,-0.19 0,-0.28 0,-0.09 0,-0.06 0,-0.09 0,-0.03 0,-0.14 0,-0.21 v -0.11 l 0.06,-0.22 a 0.44,0.44 0 0 1 0,-0.1 c 0,-0.11 0,-0.22 0.08,-0.33 0.08,-0.11 0.07,-0.24 0.1,-0.36 v -0.11 c 0,-0.09 0,-0.18 0.08,-0.27 v -0.13 l 0.09,-0.29 c 0,0 0,-0.08 0,-0.12 0.17,-0.52 0.36,-1.09 0.6,-1.72 l 0.06,-0.16 c 0,-0.12 0.09,-0.24 0.14,-0.36 l 0.07,-0.19 0.15,-0.38 0.07,-0.18 c 0.08,-0.18 0.15,-0.37 0.23,-0.56 v 0 c 0.08,-0.19 0.16,-0.39 0.25,-0.59 l 0.08,-0.21 c 0.06,-0.14 0.13,-0.29 0.19,-0.44 0.06,-0.15 0.07,-0.16 0.1,-0.23 l 0.21,-0.47 0.09,-0.22 c 0.1,-0.23 0.21,-0.47 0.31,-0.71 0.1,-0.24 0.19,-0.43 0.27,-0.63 0.08,-0.2 0,-0.13 0.08,-0.19 l 0.17,-0.44 0.06,-0.17 c 0.07,-0.19 0.13,-0.37 0.19,-0.55 0.06,-0.18 0.12,-0.38 0.16,-0.56 v -0.17 l 0.09,-0.35 c 0,-0.07 0,-0.13 0,-0.19 l 0.06,-0.31 a 1.06,1.06 0 0 0 0,-0.19 c 0,-0.09 0,-0.19 0,-0.28 v -0.18 -0.27 c 0,0 0,-0.11 0,-0.16 0,-0.05 0,-0.19 0,-0.29 a 0.62,0.62 0 0 1 0,-0.13 c 0,-0.13 0,-0.26 0,-0.39 v 0 -0.45 a 0.76,0.76 0 0 1 0,-0.15 c 0,-0.09 0,-0.19 0,-0.29 0,-0.1 0,-0.1 0,-0.15 0,-0.05 0,-0.19 0,-0.28 0,-0.09 0,-0.1 0,-0.15 v -0.34 -0.07 0 c 0,-0.19 0,-0.38 0,-0.57 0,-0.19 0,-0.36 0,-0.53 v -0.12 c 0,-0.15 0,-0.3 0,-0.46 v 0 c 0,-0.15 0,-0.31 0,-0.47 0,-0.16 0,-0.08 0,-0.12 a 3,3 0 0 1 0.1,-0.49 c 0,-0.12 0.06,-0.23 0.09,-0.35 v -0.07 c 0,-0.12 0.08,-0.24 0.13,-0.36 v -0.06 c 0,-0.11 0.09,-0.22 0.14,-0.33 v -0.07 c 0,-0.12 0.12,-0.25 0.18,-0.39 a 0.56,0.56 0 0 0 0,-0.08 c 0,-0.1 0.1,-0.2 0.16,-0.3 l 0.15,-0.26 c 0.16,-0.28 0.35,-0.57 0.56,-0.89 0.21,-0.32 0.53,-0.74 0.86,-1.15 l 0.09,-0.11 0.23,-0.27 0.12,-0.13 0.1,-0.11 0.08,-0.07 0.2,-0.21 v 0 h 0.06 l 0.11,-0.11 0.14,-0.12 v 0 l 0.28,-0.25 a 0.27,0.27 0 0 0 0.08,-0.07 l 0.28,-0.23 0.1,-0.08 0.32,-0.25 v 0 l 0.31,-0.23 0.26,-0.19 0.4,-0.29 v 0 0 l 0.46,-0.31 h 0.06 v 0 l 0.12,-0.09 0.51,-0.33 0.6,-0.39 h 0.06 l 0.61,-0.38 0.38,-0.22 0.22,-0.14 v 0 l 0.17,-0.09 0.45,-0.26 v 0 l 0.29,-0.17 h 0.08 l 0.26,-0.14 0.39,-0.22 1,-0.51 0.39,-0.2 0.38,-0.2 0.35,-0.17 0.24,-0.12 0.52,-0.25 0.21,-0.1 0.66,-0.31 0.23,-0.11 0.66,-0.3 0.5,-0.22 0.3,-0.13 0.19,-0.08 0.4,-0.18 1.35,-0.56 v 0 l 0.45,-0.18 0.1,-0.05 0.32,-0.12 0.27,-0.11 2.25,-1.04 0.38,-0.14 0.55,-0.2 0.6,-0.21 0.33,-0.12 0.64,-0.22 0.31,-0.1 v 0 l 0.32,-0.11 1.62,-0.52 v 0 h 0.16 l 0.87,-0.26 h 0.06 l 0.95,-0.28 1.38,-0.38 v 0 l 1.42,-0.37 0.3,-0.08 v 0 l 1.5,-0.36 v 0 l 0.67,-0.15 v 0 l 0.42,-0.1 v 0 l 0.68,-0.15 v 0 l 0.42,-0.09 v 0 l 0.7,-0.15 v 0 l 0.42,-0.08 v 0 l 0.74,-0.15 v 0 q 1.91,-0.36 3.87,-0.66 v 0 l 2,-0.28 h 0.35 v 0 c 0.73,-0.1 1.47,-0.18 2.21,-0.25 h 0.2 v 0 h 0.51 v 0 l 0.71,-0.07 v 0 l 1,-0.08 h 0.28 v 0 h 0.53 v 0 h 0.72 v 0 h 0.52 0.17 1.08 v 0 h 0.77 v 0 c 0.92,0 1.86,0 2.8,0 h 0.23 1.75 0.26 1.29 0.33 c 1,0 2.09,0.1 3.14,0.18 l 0.78,0.07 A 85.46,85.46 0 0 1 150.57,64 c 0.89,0.19 1.78,0.39 2.68,0.61 a 82.8,82.8 0 0 1 18.87,7.15 86.28,86.28 0 0 1 10.71,6.65 12.68,12.68 0 0 0 2.23,1.34 8.28,8.28 0 0 0 2.51,0.67 l 1.48,0.15 h 0.49 l 1,0.07 h 0.58 0.89 1.89 1 0.43 l 1.13,-0.06 h 0.22 l 1.33,-0.11 0.36,-0.05 q 0.49,0 1,-0.12 l 0.43,-0.06 1,-0.16 0.31,-0.05 1.31,-0.26 0.31,-0.07 c 0.34,-0.07 0.67,-0.15 1,-0.24 l 0.42,-0.1 c 0.32,-0.09 0.64,-0.17 1,-0.27 l 0.36,-0.1 1.29,-0.4 0.2,-0.07 1,-0.32 0.41,-0.15 0.92,-0.37 0.39,-0.16 L 211,77 a 23.23,23.23 0 0 0 5.61,-3.64 c 0.47,-0.41 0.93,-0.85 1.36,-1.3 0.43,-0.45 0.85,-0.93 1.25,-1.42 a 22.9,22.9 0 0 0 2.61,-4.06 c 1.54,-3.05 1.53,-6 -1,-8.66 a 9.5,9.5 0 0 1 4,4.18 10.24,10.24 0 0 1 0.82,2.58 22.36,22.36 0 0 1 0.37,3.65 19.2,19.2 0 0 1 -0.12,2.67 17.73,17.73 0 0 1 -2.27,6.84 c -0.22,0.38 -0.46,0.76 -0.71,1.13 a 22.86,22.86 0 0 1 -4.8,5.13 27.14,27.14 0 0 1 -2.37,1.7 c -0.81,0.53 -1.62,1 -2.39,1.49 -0.51,0.31 -1,0.61 -1.47,0.92 0.46,-0.11 1,-0.26 1.51,-0.41 q 0.56,-0.16 1.14,-0.3 a 11.08,11.08 0 0 1 1.83,-0.29 c 0.31,0 0.62,0 0.94,0 h 0.19 0.89 0.16 l 0.81,0.08 h 0.14 l 0.89,0.14 h 0.19 l 0.88,0.2 v 0 a 17.56,17.56 0 0 1 2.49,0.88 c 0.4,0.18 0.8,0.38 1.19,0.58 l 0.59,0.32 0.57,0.33 0.53,0.34 c 0.43,0.29 0.84,0.61 1.25,0.94 0.76,0.62 1.5,1.29 2.29,1.91 1.22,-2.13 1.11,-4.41 0.85,-6.72 a 9.07,9.07 0 0 1 1.45,3.79 6.89,6.89 0 0 1 0.06,1.44 7.73,7.73 0 0 1 -0.61,2.46 2.19,2.19 0 0 0 -0.12,0.33 2.25,2.25 0 0 0 -0.09,0.35 2.13,2.13 0 0 0 0.09,1.12 3.4,3.4 0 0 0 0.28,0.58 10.9,10.9 0 0 1 1,3.21 c 0.05,0.23 0.09,0.47 0.13,0.71 0.04,0.24 0.07,0.48 0.1,0.73 0.03,0.25 0.08,0.74 0.1,1.11 a 12.54,12.54 0 0 1 0,2.13 c 0,0.22 -0.05,0.44 -0.09,0.65 a 5.27,5.27 0 0 1 -0.14,0.6 4.11,4.11 0 0 1 -0.3,0.77 c 0,-0.23 0,-0.46 0,-0.69 0,-0.45 -0.05,-0.89 -0.09,-1.31 -0.24,-2.74 -0.85,-4.86 -3.12,-6.64 a 18.94,18.94 0 0 1 -1.45,1.26 14.59,14.59 0 0 1 -3.73,2.2 10.51,10.51 0 0 1 -3.65,0.74 h -1.71 -0.39 -0.52 -0.39 -0.52 -0.39 -0.53 -0.37 l -0.55,-0.07 h -0.35 l -0.61,-0.09 h -0.28 l -0.89,-0.14 -0.41,-0.06 h -0.74 -0.23 -0.08 l -0.24,0.08 v 0 l -0.25,0.13 h -0.07 l -0.2,0.14 -0.07,0.05 a 1.79,1.79 0 0 0 -0.25,0.23 c -2.26,2.23 -4.54,4.43 -6.81,6.65 a 38.63,38.63 0 0 1 -5.39,4.47 c -0.48,0.33 -1,0.64 -1.46,0.94 -0.46,0.3 -1,0.58 -1.52,0.84 a 27.47,27.47 0 0 1 -3.23,1.42 32,32 0 0 1 -3.75,1 l -2.25,0.53 a 5.11,5.11 0 0 0 0.48,0.22 l 0.15,0.06 0.33,0.13 0.19,0.06 0.29,0.1 h 0.21 l 0.28,0.08 h 0.21 l 0.29,0.06 h 0.21 0.28 0.22 0.28 1.4 0.25 0.21 0.26 0.2 0.27 0.19 l 0.28,-0.06 h 0.18 l 0.31,-0.08 h 0.15 l 0.46,-0.14 c 0.74,-0.23 1.47,-0.49 2.2,-0.76 0.57,-0.21 1.14,-0.44 1.71,-0.67 0.85,-0.36 1.7,-0.73 2.54,-1.13 q 2.07,-1 4,-2.18 c 1,-0.59 2,-1.22 2.93,-1.87 0.64,-0.44 1.27,-0.89 1.89,-1.36 l 0.93,-0.71 1.67,-1.25 a 29.47,29.47 0 0 1 5.4,-3.17 l 0.57,-0.22 0.19,-0.07 0.39,-0.13 0.22,-0.06 0.36,-0.09 0.23,-0.06 0.35,-0.07 h 0.23 0.35 0.23 0.36 0.21 0.41 0.85 0.39 0.19 0.37 0.17 l 0.51,0.1 h 0.07 l 0.45,0.11 h 0.17 l 0.34,0.1 0.18,0.06 0.36,0.14 h 0.14 l 0.47,0.2 a 0.61,0.61 0 0 0 0.14,0.07 l 0.33,0.17 0.17,0.09 0.3,0.17 0.16,0.1 a 4.94,4.94 0 0 1 0.42,0.27 h 0.07 l 0.36,0.27 0.14,0.11 0.27,0.22 0.15,0.12 0.28,0.26 0.1,0.1 0.36,0.36 0.1,0.11 0.25,0.29 0.12,0.14 0.22,0.29 0.1,0.13 c 0.11,0.14 0.2,0.29 0.3,0.43 v 0 c 0.09,0.14 0.17,0.28 0.25,0.42 l 0.09,0.15 0.17,0.33 c 0,0.06 0,0.11 0.08,0.16 0.08,0.05 0.12,0.25 0.17,0.38 a 0.61,0.61 0 0 1 0,0.12 c 0.07,0.16 0.13,0.33 0.19,0.5 l 0.05,0.12 0.12,0.4 c 0,0.06 0,0.12 0,0.18 0,0.06 0.07,0.25 0.1,0.38 v 0.16 a 5.3,5.3 0 0 1 0.1,0.55 v 0 c 0,0.24 0.06,0.47 0.08,0.69 a 5.71,5.71 0 0 1 -0.47,2.92 5.87,5.87 0 0 1 -0.62,1 11.48,11.48 0 0 0 0,-1.3 5.49,5.49 0 0 0 -0.62,-2.65 4.44,4.44 0 0 0 -0.45,-0.62 4,4 0 0 0 -0.6,-0.54 5.58,5.58 0 0 0 -0.77,-0.45 l -0.4,-0.17 h -0.1 a 2.67,2.67 0 0 0 -0.4,-0.13 v 0 l -0.38,-0.09 h -0.1 l -0.38,-0.06 v 0 h -0.36 -0.1 a 1.08,1.08 0 0 0 -0.18,0 h -0.38 -0.16 l -0.48,0.08 v 0 a 4.6,4.6 0 0 0 -0.5,0.13 h -0.14 l -0.36,0.13 -0.14,0.06 -0.46,0.22 v 0 l -0.46,0.27 -0.14,0.09 -0.33,0.22 -0.14,0.09 -0.43,0.34 -0.22,0.18 a 16.62,16.62 0 0 0 -2.44,2.45 9.7,9.7 0 0 0 -0.71,1 62,62 0 0 1 -4.5,6.39 34.36,34.36 0 0 1 -3.84,4 27.42,27.42 0 0 1 -3.66,2.66 l 0.4,0.36 0.12,0.1 0.33,0.26 0.12,0.09 0.47,0.32 h 0.06 l 0.44,0.27 0.16,0.08 0.4,0.22 0.14,0.07 0.55,0.25 h 0.11 l 0.47,0.19 0.18,0.07 0.46,0.16 h 0.14 l 0.6,0.19 h 0.15 l 0.48,0.13 h 0.19 l 0.52,0.12 h 0.12 c 0.21,0.05 0.42,0.08 0.63,0.12 h 0.17 l 0.49,0.07 h 0.19 l 0.57,0.06 h 0.07 c 0.21,0 0.42,0 0.63,0 h 1.44 0.59 0.16 l 0.42,-0.05 h 0.18 l 0.43,-0.06 h 0.13 l 0.54,-0.12 h 0.1 l 0.42,-0.12 h 0.15 l 0.36,-0.12 0.14,-0.06 0.46,-0.2 a 6.46,6.46 0 0 0 2.65,-2.16 5,5 0 0 0 0.82,-2.48 5.49,5.49 0 0 0 0,-1.14 9.51,9.51 0 0 0 -0.24,-1.23 c -0.06,-0.22 -0.13,-0.43 -0.21,-0.65 v 0 a 7.86,7.86 0 0 1 1.08,1.29 6.5,6.5 0 0 1 0.53,6.21 11.33,11.33 0 0 1 -3.43,4.9 11,11 0 0 1 -1.17,0.86 l -0.63,0.39 a 16.47,16.47 0 0 1 -3.54,1.47 c -0.25,0.08 -0.51,0.14 -0.79,0.21 l -0.44,0.1 -0.5,0.11 a 12.17,12.17 0 0 1 2.61,3.76 4.77,4.77 0 0 1 0.2,0.57 5,5 0 0 1 0.19,0.87 6.69,6.69 0 0 1 0.06,0.9 c 0,0.13 0,0.25 0,0.38 a 6.78,6.78 0 0 1 -1,2.83 l -0.18,0.29 -0.07,0.09 -0.13,0.19 -0.08,0.1 -0.13,0.16 -0.09,0.1 -0.14,0.14 -0.09,0.09 -0.15,0.14 -0.08,0.08 -0.19,0.15 h -0.06 l -0.26,0.18 h -0.07 l -0.21,0.11 -0.1,0.05 -0.18,0.08 h -0.12 l -0.18,0.06 h -0.12 l -0.19,0.06 h -0.13 -0.21 -0.11 -0.33 -0.75 -0.39 v 0 a 5.59,5.59 0 0 0 0.87,-0.32 4,4 0 0 0 1,-0.61 2.79,2.79 0 0 0 0.49,-0.54 2.67,2.67 0 0 0 0.25,-0.43 1.8,1.8 0 0 0 0.08,-0.21 1.58,1.58 0 0 0 0.09,-0.31 3.2,3.2 0 0 0 0.1,-0.78 8.47,8.47 0 0 0 -0.05,-1.13 c 0,-0.12 0,-0.25 0,-0.37 0,-0.12 -0.1,-0.47 -0.17,-0.7 a 3.38,3.38 0 0 0 -0.11,-0.34 4.22,4.22 0 0 0 -0.89,-1.46 v 0 a 4,4 0 0 0 -1.23,-0.85 c -0.68,-0.32 -1.38,-0.62 -2.1,-0.88 l -0.73,-0.25 c -0.48,-0.15 -1,-0.29 -1.47,-0.4 a 12.33,12.33 0 0 0 -1.48,-0.24 l -1.33,-0.11 h -0.26 c -0.43,0 -0.85,0 -1.28,0 h -0.24 q -0.5,0 -1,0 h -0.51 -0.93 -0.43 c -0.45,0 -0.89,0.06 -1.34,0.1 h -0.15 l -1.19,0.13 -0.46,0.07 -0.89,0.13 -0.51,0.08 -0.83,0.15 -0.52,0.1 -0.85,0.18 -0.47,0.1 -1,0.24 -0.31,0.08 -1.3,0.34 -0.35,0.1 c 0,0 0.18,0.73 0.32,0.66 l 0.11,-0.06 0.35,-0.16 h 0.08 a 3.61,3.61 0 0 1 0.42,-0.16 h 0.11 l 0.35,-0.1 h 0.11 l 0.44,-0.1 h 0.08 l 0.38,-0.06 h 0.12 0.44 1.34 0.28 0.12 l 0.4,0.06 a 4.74,4.74 0 0 1 1.63,0.54 l 0.27,0.17 a 3.71,3.71 0 0 1 1.42,2 3.5,3.5 0 0 1 0.15,0.64 l -0.2,-0.12 H 200 l -0.22,-0.12 h -0.06 l -0.32,-0.15 h -0.09 l -0.3,-0.12 h -0.11 l -0.42,-0.13 h -0.08 l -0.39,-0.1 h -0.14 l -0.51,-0.08 v 0 a 4.8,4.8 0 0 0 -0.55,0 h -0.18 -0.3 -0.2 -0.32 -0.21 l -0.36,0.08 h -0.18 l -0.55,0.18 v 0 a 7.87,7.87 0 0 0 -1.1,0.52 c -0.23,0.13 -0.46,0.28 -0.69,0.43 l -0.33,0.23 c -1.11,0.81 -2.15,1.78 -3.29,2.59 0.74,0.69 1.38,1.33 1.94,1.93 0.19,0.2 0.36,0.4 0.53,0.6 0.17,0.2 0.22,0.25 0.32,0.38 0.1,0.13 0.39,0.5 0.56,0.74 a 9,9 0 0 1 0.66,1 l 0.17,0.34 a 5.33,5.33 0 0 1 0.36,1 3.89,3.89 0 0 1 0.14,0.94 4,4 0 0 1 -0.07,0.91 5,5 0 0 1 -0.61,1.5 6.85,6.85 0 0 1 -0.52,0.76 q -0.3,0.39 -0.66,0.78 a 10,10 0 0 0 0.3,-1.2 4.73,4.73 0 0 0 0.07,-0.73 3.44,3.44 0 0 0 -0.19,-1.31 2.71,2.71 0 0 0 -0.72,-1 3.24,3.24 0 0 0 -0.93,-0.56 c -0.41,-0.18 -0.83,-0.33 -1.26,-0.47 a 28.56,28.56 0 0 0 -4,-0.88 h -0.13 -0.08 -0.1 -0.08 l -0.11,0.06 -0.09,0.05 -0.11,0.08 -0.08,0.07 a 0.48,0.48 0 0 0 -0.11,0.09 l -0.09,0.07 -0.11,0.1 -0.08,0.07 -0.11,0.11 -0.24,0.23 c -0.9,0.86 -1.81,1.7 -2.75,2.51 -0.56,0.49 -1.13,1 -1.71,1.43 -0.38,0.31 -0.77,0.61 -1.16,0.91 -0.78,0.59 -1.58,1.16 -2.39,1.7 -0.61,0.4 -1.23,0.79 -1.86,1.16 -0.63,0.37 -1.27,0.71 -1.92,1 a 29.35,29.35 0 0 1 -8.37,2.78 l -0.78,0.12 h -0.23 l -0.52,0.07 h -0.27 l -0.46,0.05 h -0.26 -0.45 -0.23 -0.52 -0.14 -0.62 -1.89 -0.5 -0.11 -0.38 -0.15 -0.31 -0.15 l -0.34,-0.06 h -0.08 l -0.4,-0.07 h -0.11 l -0.27,-0.06 h -0.13 l -0.24,-0.06 h -0.11 l -0.31,-0.09 v 0 l -0.3,-0.09 h -0.09 l -0.19,-0.07 h -0.1 l -0.18,-0.07 h -0.07 l -0.24,-0.09 v 0 l -0.18,-0.08 h -0.06 L 152,166.43 h -0.06 l -0.13,-0.07 v 0 l -0.15,-0.08 v 0 l -0.1,-0.06 v 0 l -0.07,-0.05 v 0 l -0.08,-0.05 v 0 l -0.06,-0.05 v 0 0 0 0 0 l -27.13,-21.14 v 0.67 l 26.75,21 c 0.18,0.15 2.45,1.89 7.83,1.89 a 31.27,31.27 0 0 0 5.1,-0.45 c 8.89,-1.49 15.62,-7 20.49,-11.7 l 0.11,-0.11 a 4.16,4.16 0 0 1 0.91,-0.73 22.88,22.88 0 0 1 5.07,1.3 c 0.93,0.4 2,1.25 1.12,4.09 l -0.88,2.65 1.92,-2 a 6.16,6.16 0 0 0 2,-4.4 c -0.07,-1.94 -1.37,-4 -4.34,-6.87 0.39,-0.3 0.78,-0.62 1.15,-0.93 a 12.62,12.62 0 0 1 3.52,-2.32 5.72,5.72 0 0 1 2,-0.37 6.35,6.35 0 0 1 3.23,0.94 l 1.14,0.68 -0.22,-1.31 a 4.45,4.45 0 0 0 -4,-3.81 h -0.08 a 40.37,40.37 0 0 1 7,-0.64 c 1.19,0 2.38,0.06 3.54,0.17 a 18.19,18.19 0 0 1 5.59,1.72 c 1.46,0.67 2.19,2.12 2.16,4.31 0,1.31 -0.78,2.14 -2.4,2.62 l -2.68,0.8 2.76,0.4 a 6,6 0 0 0 0.92,0.07 5,5 0 0 0 4.46,-2.67 c 2.26,-3.83 0.62,-6.9 -1.42,-9.25 l 0.73,-0.19 c 4.69,-1.39 7.69,-4 9.18,-8 a 7.15,7.15 0 0 0 -1.75,-8.15 l -2.13,-2.19 0.87,2.5 c 1.11,3.19 0.21,5.51 -2.68,6.91 a 10.55,10.55 0 0 1 -4.48,0.86 15.49,15.49 0 0 1 -9.1,-2.78 c 5.11,-3.3 8.54,-8.08 11.49,-12.79 a 14.7,14.7 0 0 1 3.24,-3.48 6.13,6.13 0 0 1 3.87,-1.59 4.93,4.93 0 0 1 2.08,0.48 c 1.67,0.78 2.26,2.22 2,4.95 l -0.18,2.15 1.29,-1.73 a 6.32,6.32 0 0 0 1.13,-5.1 10.67,10.67 0 0 0 -3.79,-6.6 11.26,11.26 0 0 0 -11.64,-1.58 33,33 0 0 0 -7.21,4.5 52.09,52.09 0 0 1 -16.06,8.58 11.07,11.07 0 0 1 -3.32,0.54 8.42,8.42 0 0 1 -1.89,-0.2 34.4,34.4 0 0 0 4,-1.1 32.78,32.78 0 0 0 11.9,-7.81 z"
       class="cls-2" />
  </g>
  <g
     transform="translate(-51.86,-55.25)"
     data-name="@Stanford"
     id="_Stanford">
    <path
       inkscape:connector-curvature="0"
       style="fill:#ffffff"
       id="path13"
       d="m 281.71,81.1 3,14.17 h 0.19 a 29.63,29.63 0 0 1 0.72,-4.38 l 2.52,-9.79 h 6.61 L 298,95.27 h 0.19 a 31.07,31.07 0 0 1 0.59,-4.19 l 2.4,-10 h 9 l -8.38,23.74 h -7.52 l -2.71,-12.91 h -0.28 a 23.33,23.33 0 0 1 -0.44,3.59 l -2.4,9.32 h -7.33 L 272.77,81.1 Z"
       class="cls-2" />
    <path
       inkscape:connector-curvature="0"
       style="fill:#ffffff"
       id="path15"
       d="m 337.44,93 c 0,7.62 -5.89,12.19 -13.13,12.19 -7.24,0 -13.13,-4.54 -13.13,-12.19 0,-7.46 5.92,-12.31 13.13,-12.31 7.21,0 13.13,4.88 13.13,12.31 z m -17.57,0.13 a 4.44,4.44 0 1 0 8.88,0 4.44,4.44 0 1 0 -8.88,0 z"
       class="cls-2" />
    <path
       inkscape:connector-curvature="0"
       style="fill:#ffffff"
       id="path17"
       d="m 343.35,81.1 h 8.88 l 3.28,12.47 h 0.22 a 25.73,25.73 0 0 1 0.6,-3.15 L 359,81.1 h 8.79 l 3.9,23.74 h -8.34 l -1.17,-13 H 362 a 19.26,19.26 0 0 1 -0.56,2.36 L 358,104.84 h -5 l -3.09,-10 a 16.15,16.15 0 0 1 -0.53,-3 h -0.29 c -0.06,0.94 -0.12,1.92 -0.22,2.86 l -1,10.14 h -8.35 z"
       class="cls-2" />
    <path
       inkscape:connector-curvature="0"
       style="fill:#ffffff"
       id="path19"
       d="m 374.46,81.1 h 16 v 6.49 h -7.27 v 2.26 h 6.64 V 96 h -6.64 v 2.33 h 7.52 v 6.48 h -16.25 z"
       class="cls-2" />
    <path
       inkscape:connector-curvature="0"
       style="fill:#ffffff"
       id="path21"
       d="m 394.11,81.1 h 8.28 l 7.74,13.16 h 0.25 a 36.21,36.21 0 0 1 -0.72,-6 V 81.1 h 8.25 v 23.74 h -8.25 l -7.59,-12.47 h -0.25 a 28.19,28.19 0 0 1 0.53,4.76 v 7.71 h -8.24 z"
       class="cls-2" />
    <path
       inkscape:connector-curvature="0"
       style="fill:#ffffff"
       id="path23"
       d="m 436.39,104.84 h -3 V 81.1 h 3 z"
       class="cls-2" />
    <path
       inkscape:connector-curvature="0"
       style="fill:#ffffff"
       id="path25"
       d="m 440.54,80 17.82,18.67 V 81.1 h 3 v 24.72 L 443.5,87.15 v 17.69 h -3 z"
       class="cls-2" />
    <path
       inkscape:connector-curvature="0"
       style="fill:#ffffff"
       id="path27"
       d="m 476.81,81.1 h 8.79 c 8,0 14.07,3.5 14.07,12.22 0,7.05 -5,11.52 -11.93,11.52 h -10.93 z m 8.63,16.63 H 486 c 2.86,0 5.06,-1.33 5.06,-4.44 0,-3.34 -1.92,-4.76 -5.06,-4.76 h -0.54 z"
       class="cls-2" />
    <path
       inkscape:connector-curvature="0"
       style="fill:#ffffff"
       id="path29"
       d="m 509.78,104.84 h -9.13 L 508.9,81.1 h 9.54 l 8.46,23.74 h -9.13 l -0.78,-3 h -6.52 z m 5.7,-8.59 -1,-4.19 c -0.25,-1 -0.41,-2 -0.57,-3.06 h -0.31 l -1.6,7.25 z"
       class="cls-2" />
    <path
       inkscape:connector-curvature="0"
       style="fill:#ffffff"
       id="path31"
       d="m 524.54,81.1 h 18.14 v 7.72 l -4.76,-0.23 v 16.25 H 529.3 V 88.59 l -4.76,0.23 z"
       class="cls-2" />
    <path
       inkscape:connector-curvature="0"
       style="fill:#ffffff"
       id="path33"
       d="m 549.42,104.84 h -9.14 l 8.25,-23.74 h 9.54 l 8.47,23.74 h -9.13 l -0.78,-3 h -6.52 z m 5.69,-8.59 -1,-4.19 c -0.25,-1 -0.41,-2 -0.57,-3.06 h -0.31 l -1.58,7.25 z"
       class="cls-2" />
    <path
       inkscape:connector-curvature="0"
       style="fill:#ffffff"
       id="path35"
       d="m 581.28,96.34 0.44,0.35 a 9.08,9.08 0 0 0 5.38,2.17 c 0.85,0 2.21,-0.35 2.21,-1.42 0,-1.07 -1.14,-1.16 -1.93,-1.32 l -1.73,-0.31 c -3.37,-0.6 -6.2,-2.59 -6.2,-6.3 0,-5.64 5.13,-8.79 10.3,-8.79 a 14.11,14.11 0 0 1 7.52,2.08 l -2.33,6.08 a 9,9 0 0 0 -5,-1.8 c -0.76,0 -1.86,0.29 -1.86,1.26 0,0.97 1.07,1 1.73,1.17 l 2,0.44 c 3.65,0.82 6.3,2.77 6.3,6.8 0,5.67 -5.17,8.47 -10.3,8.47 a 21.45,21.45 0 0 1 -9.13,-2.17 z"
       class="cls-2" />
    <path
       inkscape:connector-curvature="0"
       style="fill:#ffffff"
       id="path37"
       d="m 618.33,90.74 a 7.64,7.64 0 0 0 -5.07,-2.4 4.65,4.65 0 0 0 -4.69,4.66 4.75,4.75 0 0 0 4.82,4.63 6.88,6.88 0 0 0 4.94,-2.2 l -0.25,8.87 a 18.83,18.83 0 0 1 -6.14,1 11.9,11.9 0 0 1 -12.06,-12 12.35,12.35 0 0 1 12.41,-12.47 18,18 0 0 1 5.79,1 z"
       class="cls-2" />
    <path
       inkscape:connector-curvature="0"
       style="fill:#ffffff"
       id="path39"
       d="m 621.45,81.1 h 8.63 v 23.74 h -8.63 z"
       class="cls-2" />
    <path
       inkscape:connector-curvature="0"
       style="fill:#ffffff"
       id="path41"
       d="m 634,81.1 h 16 v 6.49 h -7.27 v 2.26 h 6.64 V 96 h -6.64 v 2.33 h 7.52 v 6.48 H 634 Z"
       class="cls-2" />
    <path
       inkscape:connector-curvature="0"
       style="fill:#ffffff"
       id="path43"
       d="m 653.59,81.1 h 8.29 l 7.74,13.16 h 0.25 a 36.21,36.21 0 0 1 -0.72,-6 V 81.1 h 8.25 v 23.74 h -8.25 l -7.59,-12.47 h -0.25 a 28.19,28.19 0 0 1 0.53,4.76 v 7.71 h -8.25 z"
       class="cls-2" />
    <path
       inkscape:connector-curvature="0"
       style="fill:#ffffff"
       id="path45"
       d="m 698.78,90.74 a 7.68,7.68 0 0 0 -5.07,-2.4 4.65,4.65 0 0 0 -4.71,4.66 4.75,4.75 0 0 0 4.82,4.63 6.9,6.9 0 0 0 4.95,-2.2 l -0.26,8.87 a 18.83,18.83 0 0 1 -6.14,1 11.9,11.9 0 0 1 -12.06,-12 12.35,12.35 0 0 1 12.41,-12.47 18,18 0 0 1 5.79,1 z"
       class="cls-2" />
    <path
       inkscape:connector-curvature="0"
       style="fill:#ffffff"
       id="path47"
       d="m 701.7,81.1 h 16 v 6.49 h -7.28 v 2.26 H 717 V 96 h -6.65 v 2.33 h 7.53 v 6.48 H 701.7 Z"
       class="cls-2" />
    <g
       id="text49"
       style="font-size:32px;font-family:FuturaStd-Book, 'Futura Std';letter-spacing:-0.01em;fill:#ffffff"
       transform="translate(270.28,144.34)"
       aria-label="RECIFE">
      <path
         inkscape:connector-curvature="0"
         id="path59"
         style="font-size:32px;font-family:FuturaStd-Book, 'Futura Std';letter-spacing:-0.01em;fill:#ffffff"
         d="m 5.12,-21.632 h 0.8 c 3.232,0 6.144,0.384 6.144,4.352 0,3.744 -3.072,4.32 -6.112,4.32 H 5.12 Z m 0,11.04 H 5.792 L 13.088,0 h 3.296 l -7.68,-10.816 c 3.712,-0.32 6.048,-2.944 6.048,-6.656 0,-5.44 -4.256,-6.656 -8.832,-6.656 H 2.432 V 0 H 5.12 Z" />
      <path
         inkscape:connector-curvature="0"
         id="path61"
         style="font-size:32px;font-family:FuturaStd-Book, 'Futura Std';letter-spacing:-0.01em;fill:#ffffff"
         d="m 19.487,0 h 12.512 v -2.496 h -9.824 v -9.472 h 9.536 v -2.496 h -9.536 v -7.168 h 9.824 v -2.496 H 19.487 Z" />
      <path
         inkscape:connector-curvature="0"
         id="path63"
         style="font-size:32px;font-family:FuturaStd-Book, 'Futura Std';letter-spacing:-0.01em;fill:#ffffff"
         d="m 54.629501,-22.176 c -2.144,-1.6 -4.512,-2.368 -7.2,-2.368 -6.912,0 -12.576,5.664 -12.576,12.576 0,6.848 5.76,12.384 12.576,12.384 2.56,0 5.12,-0.864 7.2,-2.368 V -5.28 c -1.92,1.92 -4.576,3.2 -7.296,3.2 -5.408,0 -9.792,-4.672 -9.792,-9.984 0,-5.312 4.352,-9.984 9.728,-9.984 2.784,0 5.44,1.216 7.36,3.2 z" />
      <path
         inkscape:connector-curvature="0"
         id="path65"
         style="font-size:32px;font-family:FuturaStd-Book, 'Futura Std';letter-spacing:-0.01em;fill:#ffffff"
         d="m 61.599001,-24.128 h -2.688 V 0 h 2.688 z" />
      <path
         inkscape:connector-curvature="0"
         id="path67"
         style="font-size:32px;font-family:FuturaStd-Book, 'Futura Std';letter-spacing:-0.01em;fill:#ffffff"
         d="m 77.128001,-21.632 v -2.496 h -10.976 V 0 h 2.688 v -11.968 h 8.032 v -2.496 h -8.032 v -7.168 z" />
      <path
         inkscape:connector-curvature="0"
         id="path69"
         style="font-size:32px;font-family:FuturaStd-Book, 'Futura Std';letter-spacing:-0.01em;fill:#ffffff"
         d="m 81.144502,0 h 12.512 v -2.496 h -9.824 v -9.472 h 9.536 v -2.496 h -9.536 v -7.168 h 9.824 v -2.496 h -12.512 z" />
    </g>
  </g>
</svg>
